<?xml version="1.0" encoding="UTF-8" standalone="no"?>
<svg
   height="48"
   width="48"
   version="1.1"
   id="svg6"
   sodipodi:docname="io.github.lainsce.DotMatrix.svg"
   inkscape:version="1.2.2 (b0a8486541, 2022-12-01)"
   xmlns:inkscape="http://www.inkscape.org/namespaces/inkscape"
   xmlns:sodipodi="http://sodipodi.sourceforge.net/DTD/sodipodi-0.dtd"
   xmlns="http://www.w3.org/2000/svg"
   xmlns:svg="http://www.w3.org/2000/svg"
   xmlns:rdf="http://www.w3.org/1999/02/22-rdf-syntax-ns#"
   xmlns:cc="http://creativecommons.org/ns#"
   xmlns:dc="http://purl.org/dc/elements/1.1/">
  <metadata
     id="metadata12">
    <rdf:RDF>
      <cc:Work
         rdf:about="">
        <dc:format>image/svg+xml</dc:format>
        <dc:type
           rdf:resource="http://purl.org/dc/dcmitype/StillImage" />
      </cc:Work>
    </rdf:RDF>
  </metadata>
  <defs
     id="defs10" />
  <sodipodi:namedview
     pagecolor="#ffffff"
     bordercolor="#666666"
     borderopacity="1"
     objecttolerance="10"
     gridtolerance="10"
     guidetolerance="10"
     inkscape:pageopacity="0"
     inkscape:pageshadow="2"
     inkscape:window-width="1507"
     inkscape:window-height="1056"
     id="namedview8"
     showgrid="false"
     inkscape:zoom="5.656854"
     inkscape:cx="23.511302"
     inkscape:cy="25.544234"
     inkscape:window-x="0"
     inkscape:window-y="0"
     inkscape:window-maximized="0"
     inkscape:current-layer="svg6"
     inkscape:document-rotation="0"
     inkscape:pagecheckerboard="0"
     inkscape:showpageshadow="2"
     inkscape:deskcolor="#d1d1d1" />
  <path
     id="circle2"
     style="opacity:0.99;fill:#a0b9c9"
     transform="matrix(1.75830584759 0 0 1.75830608345 -18.15909274367 -30.97874795549)"
     d="M 37.173613,31.534513 A 13.232998,13.232998 0 0 1 23.940615,44.767511 13.232998,13.232998 0 0 1 10.707617,31.534513 13.232998,13.232998 0 0 1 23.940615,18.301516 13.232998,13.232998 0 0 1 37.173613,31.534513 Z" />
  <path
     style="fill:#ffffff;fill-opacity:1;stroke-width:0.714651"
     d="m 8.8129241,13.504955 c -0.6254718,-0.01863 -0.9389802,0.692893 -0.7860872,1.231464 0.3057862,5.217518 2.0308551,10.749845 6.2068451,14.16955 1.572175,1.290106 3.443961,2.200583 5.417672,2.688231 -2.891072,1.700595 -4.612235,5.212889 -4.59988,8.425806 0.208492,0.824063 1.246313,0.62036 1.86252,0.547832 2.937402,-0.262353 5.957386,-2.466014 6.820692,-5.25764 0.937435,3.111067 4.363583,5.37801 7.622219,5.317824 0.665623,0.134249 1.161367,-0.574064 0.969866,-1.185169 -0.185319,-3.029277 -1.767489,-6.256081 -4.508756,-7.848653 4.543554,-1.038565 8.209902,-4.598697 9.880917,-8.877956 1.085698,-2.726813 1.732789,-5.665045 1.734331,-8.601729 -0.203848,-0.820976 -1.229321,-0.611102 -1.843982,-0.580237 -4.395295,0.146613 -8.680936,2.395027 -11.121051,6.080159 -1.297276,1.867255 -2.166759,4.001485 -2.733544,6.194354 C 22.598024,21.1175 19.657531,16.586703 15.059924,14.696297 13.093937,13.85526 10.944164,13.50187 8.8129241,13.504955 Z m 0.8725728,1.654299 c 3.8439511,0.09259 7.6848111,1.901206 9.8623851,5.126469 2.052474,2.979897 3.135082,6.580152 3.31423,10.177324 -3.842406,-0.09259 -7.684816,-1.899665 -9.862386,-5.124928 C 10.950341,22.367483 9.8631004,18.74562 9.6854969,15.159254 Z m 28.0983751,0 c -0.240932,4.268457 -1.65866,8.661912 -4.670194,11.791498 -2.209999,2.270028 -5.377516,3.396555 -8.504875,3.512295 0.240934,-4.268459 1.658658,-8.660371 4.670193,-11.789956 2.214633,-2.274657 5.372882,-3.39347 8.504876,-3.513837 z m -14.92948,17.08463 c -0.242473,2.626503 -2.02232,5.536956 -4.734244,6.36565 -0.979135,0.452152 -1.765221,0.348758 -1.235499,-0.842579 0.457134,-2.39503 2.470184,-4.814747 4.996785,-5.34869 0.319684,-0.08025 0.645547,-0.137355 0.972958,-0.174381 z m 1.762131,0 c 2.362895,0.146613 4.729601,1.887318 5.449279,4.103336 0.318144,0.989184 1.267932,3.271559 -0.597672,2.328669 -2.849373,-0.733014 -4.598328,-3.729882 -4.851607,-6.432005 z"
     id="path10" />
</svg>
